<?xml version="1.0" encoding="UTF-8"?>
<!DOCTYPE svg PUBLIC "-//W3C//DTD SVG 1.1//EN" "http://www.w3.org/Graphics/SVG/1.1/DTD/svg11.dtd">
<svg xmlns="http://www.w3.org/2000/svg" version="1.1" width="192px" height="192px" style="shape-rendering:geometricPrecision; text-rendering:geometricPrecision; image-rendering:optimizeQuality; fill-rule:evenodd; clip-rule:evenodd" xmlns:xlink="http://www.w3.org/1999/xlink">
<g><path style="opacity:1" fill="#4ed6cc" d="M -0.5,-0.5 C 63.5,-0.5 127.5,-0.5 191.5,-0.5C 191.5,63.5 191.5,127.5 191.5,191.5C 127.5,191.5 63.5,191.5 -0.5,191.5C -0.5,127.5 -0.5,63.5 -0.5,-0.5 Z"/></g>
<g><path style="opacity:1" fill="#8ee3dc" d="M 100.5,76.5 C 100.5,77.5 100.5,78.5 100.5,79.5C 92.8333,79.5 85.1667,79.5 77.5,79.5C 85.2549,79.0984 92.9216,78.0984 100.5,76.5 Z"/></g>
<g><path style="opacity:1" fill="#8ee4db" d="M 77.5,80.5 C 79.4668,88.0968 80.1335,96.0968 79.5,104.5C 78.8048,96.5994 78.1382,88.5994 77.5,80.5 Z"/></g>
<g><path style="opacity:1" fill="#f5fcfb" d="M 100.5,76.5 C 101.485,80.6344 101.818,84.9677 101.5,89.5C 104.788,89.927 107.788,89.2603 110.5,87.5C 111.497,95.1378 111.831,102.804 111.5,110.5C 112.791,110.263 113.791,110.596 114.5,111.5C 106.5,111.5 98.5,111.5 90.5,111.5C 90.7373,112.791 90.404,113.791 89.5,114.5C 89.5,110.167 89.5,105.833 89.5,101.5C 86.5,101.5 83.5,101.5 80.5,101.5C 80.7373,102.791 80.404,103.791 79.5,104.5C 80.1335,96.0968 79.4668,88.0968 77.5,80.5C 76.1667,80.1667 76.1667,79.8333 77.5,79.5C 85.1667,79.5 92.8333,79.5 100.5,79.5C 100.5,78.5 100.5,77.5 100.5,76.5 Z"/></g>
<g><path style="opacity:1" fill="#4ed5cb" d="M 102.5,91.5 C 104.833,91.5 107.167,91.5 109.5,91.5C 109.5,97.5 109.5,103.5 109.5,109.5C 103.5,109.5 97.5,109.5 91.5,109.5C 91.5,106.833 91.5,104.167 91.5,101.5C 95.5,101.5 99.5,101.5 103.5,101.5C 104.043,101.44 104.376,101.107 104.5,100.5C 102.74,97.7877 102.073,94.7877 102.5,91.5 Z"/></g>
<g><path style="opacity:1" fill="#9be8e3" d="M 102.5,91.5 C 102.073,94.7877 102.74,97.7877 104.5,100.5C 104.376,101.107 104.043,101.44 103.5,101.5C 101.343,98.3125 101.01,94.9792 102.5,91.5 Z"/></g>
<g><path style="opacity:1" fill="#b5edea" d="M 90.5,91.5 C 93.6248,90.5206 96.9581,90.1872 100.5,90.5C 100.5,93.8333 100.5,97.1667 100.5,100.5C 96.9581,100.813 93.6248,100.479 90.5,99.5C 93.5,99.5 96.5,99.5 99.5,99.5C 99.5,96.8333 99.5,94.1667 99.5,91.5C 96.5,91.5 93.5,91.5 90.5,91.5 Z"/></g>
<g><path style="opacity:1" fill="#54d7cd" d="M 90.5,91.5 C 93.5,91.5 96.5,91.5 99.5,91.5C 99.5,94.1667 99.5,96.8333 99.5,99.5C 96.5,99.5 93.5,99.5 90.5,99.5C 90.5,96.8333 90.5,94.1667 90.5,91.5 Z"/></g>
<g><path style="opacity:1" fill="#ade9e4" d="M 87.5,89.5 C 89.6567,92.6875 89.99,96.0208 88.5,99.5C 88.927,96.2123 88.2603,93.2123 86.5,90.5C 86.6236,89.8933 86.9569,89.56 87.5,89.5 Z"/></g>
<g><path style="opacity:1" fill="#4ed5cb" d="M 99.5,89.5 C 95.5,89.5 91.5,89.5 87.5,89.5C 86.9569,89.56 86.6236,89.8933 86.5,90.5C 88.2603,93.2123 88.927,96.2123 88.5,99.5C 86.1667,99.5 83.8333,99.5 81.5,99.5C 81.5,93.5 81.5,87.5 81.5,81.5C 87.5,81.5 93.5,81.5 99.5,81.5C 99.5,84.1667 99.5,86.8333 99.5,89.5 Z"/></g>
<g><path style="opacity:1" fill="#a0e7e2" d="M 99.5,89.5 C 99.5,86.8333 99.5,84.1667 99.5,81.5C 93.5,81.5 87.5,81.5 81.5,81.5C 81.5,87.5 81.5,93.5 81.5,99.5C 83.8333,99.5 86.1667,99.5 88.5,99.5C 86.0521,100.473 83.3854,100.806 80.5,100.5C 80.5,93.8333 80.5,87.1667 80.5,80.5C 87.1667,80.5 93.8333,80.5 100.5,80.5C 100.81,83.7131 100.477,86.7131 99.5,89.5 Z"/></g>
<g><path style="opacity:1" fill="#a0e7e2" d="M 109.5,91.5 C 110.49,97.6446 110.823,103.978 110.5,110.5C 103.833,110.5 97.1667,110.5 90.5,110.5C 90.19,107.287 90.5233,104.287 91.5,101.5C 91.5,104.167 91.5,106.833 91.5,109.5C 97.5,109.5 103.5,109.5 109.5,109.5C 109.5,103.5 109.5,97.5 109.5,91.5 Z"/></g>
<g><path style="opacity:1" fill="#8ce3dc" d="M 114.5,111.5 C 107.018,112.492 99.3516,112.825 91.5,112.5C 91.719,113.675 91.3857,114.675 90.5,115.5C 89.8933,115.376 89.56,115.043 89.5,114.5C 90.404,113.791 90.7373,112.791 90.5,111.5C 98.5,111.5 106.5,111.5 114.5,111.5 Z"/></g>
</svg>
